{
  "accessors": [
    {
      "bufferView": 2,
      "componentType": 5126,
      "count": 1011,
      "max": [
        25.892257690429688,
        16.907386779785156,
        1.9539560079574585
      ],
      "min": [
        -22.802148818969727,
        -19.352733612060547,
        -0.027118999511003494
      ],
      "type": "VEC3"
    },
    {
      "bufferView": 2,
      "byteOffset": 12132,
      "componentType": 5126,
      "count": 1011,
      "max": [
        0.9975651502609253,
        0.9975646734237671,
        0.999865710735321
      ],
      "min": [
        -0.9979492425918579,
        -0.9999663829803467,
        -0.9999995231628418
      ],
      "type": "VEC3"
    },
    {
      "bufferView": 1,
      "componentType": 5126,
      "count": 1011,
      "max": [
        2.4053409099578857,
        1.781406044960022
      ],
      "min": [
        -2.4053409099578857,
        -1.781406044960022
      ],
      "type": "VEC2"
    },
    {
      "bufferView": 0,
      "componentType": 5125,
      "count": 4050,
      "type": "SCALAR"
    },
    {
      "bufferView": 2,
      "byteOffset": 24264,
      "componentType": 5126,
      "count": 584,
      "max": [
        4.94755220413208,
        -14.728421211242676,
        2.082782030105591
      ],
      "min": [
        -0.7097139954566956,
        -19.289108276367188,
        0.21679499745368958
      ],
      "type": "VEC3"
    },
    {
      "bufferView": 2,
      "byteOffset": 31272,
      "componentType": 5126,
      "count": 584,
      "max": [
        0.9993907809257507,
        0.9993907809257507,
        1.0
      ],
      "min": [
        -0.9993907809257507,
        -0.9993907809257507,
        -0.9987235069274902
      ],
      "type": "VEC3"
    },
    {
      "bufferView": 1,
      "byteOffset": 8088,
      "componentType": 5126,
      "count": 584,
      "max": [
        0.5584999918937683,
        0.4319689869880676
      ],
      "min": [
        -0.5186560153961182,
        -0.20088200271129608
      ],
      "type": "VEC2"
    },
    {
      "bufferView": 0,
      "byteOffset": 16200,
      "componentType": 5125,
      "count": 2508,
      "type": "SCALAR"
    },
    {
      "bufferView": 2,
      "byteOffset": 38280,
      "componentType": 5126,
      "count": 8196,
      "max": [
        38.484039306640625,
        67.67467498779297,
        45.006797790527344
      ],
      "min": [
        -35.470916748046875,
        -31.52910804748535,
        1.1804399490356445
      ],
      "type": "VEC3"
    },
    {
      "bufferView": 2,
      "byteOffset": 136632,
      "componentType": 5126,
      "count": 8196,
      "max": [
        1.0,
        1.0,
        1.0
      ],
      "min": [
        -1.0,
        -1.0,
        -1.0
      ],
      "type": "VEC3"
    },
    {
      "bufferView": 1,
      "byteOffset": 12760,
      "componentType": 5126,
      "count": 8196,
      "max": [
        6.494100093841553,
        6.0
      ],
      "min": [
        -6.494100093841553,
        -4.049540042877197
      ],
      "type": "VEC2"
    },
    {
      "bufferView": 0,
      "byteOffset": 26232,
      "componentType": 5125,
      "count": 34230,
      "type": "SCALAR"
    },
    {
      "bufferView": 2,
      "byteOffset": 234984,
      "componentType": 5126,
      "count": 9055,
      "max": [
        51.33356857299805,
        70.37168884277344,
        37.0
      ],
      "min": [
        -48.17953109741211,
        -40.226783752441406,
        5.0
      ],
      "type": "VEC3"
    },
    {
      "bufferView": 2,
      "byteOffset": 343644,
      "componentType": 5126,
      "count": 9055,
      "max": [
        1.0,
        1.0,
        1.0
      ],
      "min": [
        -1.0,
        -1.0,
        -1.0
      ],
      "type": "VEC3"
    },
    {
      "bufferView": 1,
      "byteOffset": 78328,
      "componentType": 5126,
      "count": 9055,
      "max": [
        3.0291500091552734,
        7.510207176208496
      ],
      "min": [
        -3.0291500091552734,
        -3.3887269496917725
      ],
      "type": "VEC2"
    },
    {
      "bufferView": 0,
      "byteOffset": 163152,
      "componentType": 5125,
      "count": 37782,
      "type": "SCALAR"
    },
    {
      "bufferView": 2,
      "byteOffset": 452304,
      "componentType": 5126,
      "count": 2196,
      "max": [
        47.46966552734375,
        11.01777458190918,
        34.19632339477539
      ],
      "min": [
        -44.31562805175781,
        -15.084789276123047,
        11.189229965209961
      ],
      "type": "VEC3"
    },
    {
      "bufferView": 2,
      "byteOffset": 478656,
      "componentType": 5126,
      "count": 2196,
      "max": [
        0.9592469334602356,
        0.9596824645996094,
        0.9493776559829712
      ],
      "min": [
        -0.959221363067627,
        -0.9599175453186035,
        -0.9491028189659119
      ],
      "type": "VEC3"
    },
    {
      "bufferView": 1,
      "byteOffset": 150768,
      "componentType": 5126,
      "count": 2196,
      "max": [
        7.129007816314697,
        0.3166159987449646
      ],
      "min": [
        -7.129007816314697,
        0.0
      ],
      "type": "VEC2"
    },
    {
      "bufferView": 0,
      "byteOffset": 314280,
      "componentType": 5125,
      "count": 10356,
      "type": "SCALAR"
    },
    {
      "bufferView": 2,
      "byteOffset": 505008,
      "componentType": 5126,
      "count": 6421,
      "max": [
        50.899635314941406,
        11.20655632019043,
        34.48995590209961
      ],
      "min": [
        -47.7455940246582,
        -39.76899719238281,
        -0.0019120000069960952
      ],
      "type": "VEC3"
    },
    {
      "bufferView": 2,
      "byteOffset": 582060,
      "componentType": 5126,
      "count": 6421,
      "max": [
        0.9993907809257507,
        0.9999774694442749,
        1.0
      ],
      "min": [
        -0.99989253282547,
        -0.9992574453353882,
        -1.0
      ],
      "type": "VEC3"
    },
    {
      "bufferView": 1,
      "byteOffset": 168336,
      "componentType": 5126,
      "count": 6421,
      "max": [
        5.598822116851807,
        2.9397220611572266
      ],
      "min": [
        -5.598822116851807,
        -2.5132739543914795
      ],
      "type": "VEC2"
    },
    {
      "bufferView": 0,
      "byteOffset": 355704,
      "componentType": 5125,
      "count": 31692,
      "type": "SCALAR"
    },
    {
      "bufferView": 2,
      "byteOffset": 659112,
      "componentType": 5126,
      "count": 2349,
      "max": [
        38.88572692871094,
        20.29194450378418,
        35.19343185424805
      ],
      "min": [
        -35.731685638427734,
        -22.903953552246094,
        1.0
      ],
      "type": "VEC3"
    },
    {
      "bufferView": 2,
      "byteOffset": 687300,
      "componentType": 5126,
      "count": 2349,
      "max": [
        0.999975323677063,
        0.9976003170013428,
        0.9982001185417175
      ],
      "min": [
        -0.9999912977218628,
        -0.9976018667221069,
        -0.9981996417045593
      ],
      "type": "VEC3"
    },
    {
      "bufferView": 1,
      "byteOffset": 219704,
      "componentType": 5126,
      "count": 2349,
      "max": [
        17.955684661865234,
        1.2493820190429688
      ],
      "min": [
        -17.955684661865234,
        -1.249189019203186
      ],
      "type": "VEC2"
    },
    {
      "bufferView": 0,
      "byteOffset": 482472,
      "componentType": 5125,
      "count": 10872,
      "type": "SCALAR"
    }
  ],
  "asset": {
    "extras": {
      "author": "YarikLegendary (https://sketchfab.com/YarikLegendary)",
      "license": "CC-BY-4.0 (http://creativecommons.org/licenses/by/4.0/)",
      "source": "https://sketchfab.com/3d-models/mini-robot-cf5dd6fed1f14e33aaa396c558d3c747",
      "title": "Mini robot"
    },
    "generator": "Sketchfab-15.44.0",
    "version": "2.0"
  },
  "bufferViews": [
    {
      "buffer": 0,
      "byteLength": 525960,
      "name": "floatBufferViews",
      "target": 34963
    },
    {
      "buffer": 0,
      "byteLength": 238496,
      "byteOffset": 525960,
      "byteStride": 8,
      "name": "floatBufferViews",
      "target": 34962
    },
    {
      "buffer": 0,
      "byteLength": 715488,
      "byteOffset": 764456,
      "byteStride": 12,
      "name": "floatBufferViews",
      "target": 34962
    }
  ],
  "buffers": [
    {
      "byteLength": 1479944,
      "uri": "scene.bin"
    }
  ],
  "materials": [
    {
      "doubleSided": true,
      "name": "ABS_White",
      "pbrMetallicRoughness": {
        "baseColorFactor": [
          0.02041955391983244,
          0.01821036264218424,
          0.03709710925778361,
          1.0
        ],
        "metallicFactor": 0.0,
        "roughnessFactor": 0.4
      }
    },
    {
      "doubleSided": true,
      "name": "Acetal_Resin_White",
      "pbrMetallicRoughness": {
        "baseColorFactor": [
          0.04633452474797652,
          0.028125531936253726,
          0.08278013630699911,
          1.0
        ],
        "metallicFactor": 0.0,
        "roughnessFactor": 0.4
      }
    },
    {
      "doubleSided": true,
      "name": "Acetal_Resin_White_1",
      "pbrMetallicRoughness": {
        "baseColorFactor": [
          0.031155535374953296,
          0.8928293248917687,
          0.8505941824664471,
          1.0
        ],
        "metallicFactor": 0.0,
        "roughnessFactor": 0.3845117336305308
      }
    },
    {
      "doubleSided": true,
      "name": "Acetal_Resin_White_2",
      "pbrMetallicRoughness": {
        "baseColorFactor": [
          0.044895049180010534,
          0.044895049180010534,
          0.044895049180010534,
          1.0
        ],
        "metallicFactor": 0.0,
        "roughnessFactor": 0.4
      }
    },
    {
      "doubleSided": true,
      "name": "Aluminum_-_Anodized_Glossy_Grey",
      "pbrMetallicRoughness": {
        "baseColorFactor": [
          0.026383080430379433,
          0.026383080430379433,
          0.026383080430379433,
          1.0
        ],
        "metallicFactor": 0.0,
        "roughnessFactor": 0.6
      }
    },
    {
      "doubleSided": true,
      "name": "Aluminum_-_Anodized_Rough_Grey",
      "pbrMetallicRoughness": {
        "baseColorFactor": [
          0.3581108469719256,
          0.3581108469719256,
          0.3581108469719256,
          1.0
        ],
        "metallicFactor": 0.829571141628415,
        "roughnessFactor": 0.2963599614650825
      }
    }
  ],
  "meshes": [
    {
      "name": "Object_0",
      "primitives": [
        {
          "attributes": {
            "NORMAL": 1,
            "POSITION": 0,
            "TEXCOORD_0": 2
          },
          "indices": 3,
          "material": 3,
          "mode": 4
        }
      ]
    },
    {
      "name": "Object_1",
      "primitives": [
        {
          "attributes": {
            "NORMAL": 5,
            "POSITION": 4,
            "TEXCOORD_0": 6
          },
          "indices": 7,
          "material": 4,
          "mode": 4
        }
      ]
    },
    {
      "name": "Object_2",
      "primitives": [
        {
          "attributes": {
            "NORMAL": 9,
            "POSITION": 8,
            "TEXCOORD_0": 10
          },
          "indices": 11,
          "material": 0,
          "mode": 4
        }
      ]
    },
    {
      "name": "Object_3",
      "primitives": [
        {
          "attributes": {
            "NORMAL": 13,
            "POSITION": 12,
            "TEXCOORD_0": 14
          },
          "indices": 15,
          "material": 1,
          "mode": 4
        }
      ]
    },
    {
      "name": "Object_4",
      "primitives": [
        {
          "attributes": {
            "NORMAL": 17,
            "POSITION": 16,
            "TEXCOORD_0": 18
          },
          "indices": 19,
          "material": 1,
          "mode": 4
        }
      ]
    },
    {
      "name": "Object_5",
      "primitives": [
        {
          "attributes": {
            "NORMAL": 21,
            "POSITION": 20,
            "TEXCOORD_0": 22
          },
          "indices": 23,
          "material": 2,
          "mode": 4
        }
      ]
    },
    {
      "name": "Object_6",
      "primitives": [
        {
          "attributes": {
            "NORMAL": 25,
            "POSITION": 24,
            "TEXCOORD_0": 26
          },
          "indices": 27,
          "material": 5,
          "mode": 4
        }
      ]
    }
  ],
  "nodes": [
    {
      "children": [
        1
      ],
      "matrix": [
        1.0,
        0.0,
        0.0,
        0.0,
        0.0,
        -0.999998927116394,
        -0.0014489893801512554,
        0.0,
        0.0,
        0.0014489893801512554,
        -0.999998927116394,
        0.0,
        0.0,
        0.0,
        0.0,
        1.0
      ],
      "name": "Sketchfab_model"
    },
    {
      "children": [
        2,
        3,
        4,
        5,
        6,
        7,
        8
      ],
      "name": "ROBO v4.obj.cleaner.materialmerger.gles"
    },
    {
      "mesh": 0,
      "name": "Object_2"
    },
    {
      "mesh": 1,
      "name": "Object_3"
    },
    {
      "mesh": 2,
      "name": "Object_4"
    },
    {
      "mesh": 3,
      "name": "Object_5"
    },
    {
      "mesh": 4,
      "name": "Object_6"
    },
    {
      "mesh": 5,
      "name": "Object_7"
    },
    {
      "mesh": 6,
      "name": "Object_8"
    }
  ],
  "scene": 0,
  "scenes": [
    {
      "name": "Sketchfab_Scene",
      "nodes": [
        0
      ]
    }
  ]
}
