<?xml version="1.0" encoding="iso-8859-1"?>
<!-- Uploaded to: SVG Repo, www.svgrepo.com, Generator: SVG Repo Mixer Tools -->
<!DOCTYPE svg PUBLIC "-//W3C//DTD SVG 1.1//EN" "http://www.w3.org/Graphics/SVG/1.1/DTD/svg11.dtd">
<svg fill="#000000" version="1.1" id="Capa_1" xmlns="http://www.w3.org/2000/svg" xmlns:xlink="http://www.w3.org/1999/xlink" 
	 width="800px" height="800px" viewBox="0 0 31.492 31.492"
	 xml:space="preserve">
<g>
	<g>
		<path d="M12.033,16.98c-0.382-0.176-0.919-0.264-1.608-0.272H6.97V21h3.4c0.699,0,1.24-0.092,1.631-0.283
			c0.703-0.35,1.057-1.019,1.057-2.01C13.058,17.87,12.717,17.293,12.033,16.98z"/>
		<path d="M12.077,13.645c0.435-0.265,0.651-0.736,0.651-1.415c0-0.749-0.286-1.246-0.863-1.485c-0.496-0.165-1.131-0.251-1.9-0.251
			H6.97v3.551h3.405C11.074,14.044,11.641,13.911,12.077,13.645z"/>
		<path d="M22.516,13.941c-0.775,0-1.375,0.224-1.801,0.661c-0.427,0.439-0.693,1.033-0.803,1.785h5.195
			c-0.059-0.799-0.326-1.407-0.808-1.82C23.822,14.15,23.227,13.941,22.516,13.941z"/>
		<path d="M0,0v31.492h31.492V0H0z M19.249,8.366h6.481v1.61h-6.481V8.366z M15.734,21.504c-0.306,0.502-0.685,0.924-1.14,1.266
			c-0.513,0.394-1.119,0.664-1.816,0.808c-0.699,0.146-1.457,0.218-2.271,0.218H3.256V7.7h7.775
			c1.958,0.029,3.348,0.597,4.168,1.714c0.493,0.685,0.736,1.504,0.736,2.456c0,0.987-0.247,1.773-0.745,2.37
			c-0.275,0.337-0.684,0.641-1.225,0.916c0.819,0.302,1.44,0.771,1.855,1.423c0.418,0.646,0.627,1.435,0.627,2.356
			C16.448,19.891,16.214,20.748,15.734,21.504z M28.234,18.377h-8.396c0.047,1.159,0.446,1.969,1.206,2.434
			c0.457,0.291,1.012,0.432,1.661,0.432c0.687,0,1.241-0.173,1.673-0.527c0.234-0.188,0.439-0.455,0.618-0.791h3.077
			c-0.08,0.685-0.45,1.377-1.117,2.084c-1.03,1.121-2.477,1.684-4.335,1.684c-1.536,0-2.888-0.477-4.062-1.42
			c-1.17-0.946-1.76-2.485-1.76-4.618c0-1.999,0.528-3.531,1.587-4.597c1.063-1.066,2.435-1.598,4.125-1.598
			c1.003,0,1.905,0.179,2.712,0.537c0.803,0.362,1.467,0.93,1.988,1.708c0.475,0.687,0.777,1.48,0.921,2.387
			C28.214,16.615,28.249,17.379,28.234,18.377z"/>
	</g>
</g>
</svg>